<svg width="32" height="32" viewBox="0 0 32 32" fill="none" xmlns="http://www.w3.org/2000/svg">
  <!-- Background circle -->
  <circle cx="16" cy="16" r="15" fill="#3B82F6" stroke="#1E40AF" stroke-width="2"/>
  
  <!-- Heart symbol for fitness/health -->
  <path d="M16 8C14.5 6.5 12 6.5 10.5 8C9 9.5 9 12 10.5 13.5L16 19L21.5 13.5C23 12 23 9.5 21.5 8C20 6.5 17.5 6.5 16 8Z" fill="#FFFFFF"/>
  
  <!-- Dumbbell symbol -->
  <rect x="6" y="20" width="20" height="3" rx="1.5" fill="#FFFFFF"/>
  <rect x="8" y="18" width="3" height="7" rx="1.5" fill="#FFFFFF"/>
  <rect x="21" y="18" width="3" height="7" rx="1.5" fill="#FFFFFF"/>
  
  <!-- Small benefit symbol (star) -->
  <path d="M16 4L17.5 6.5L20 7L17.5 7.5L16 10L14.5 7.5L12 7L14.5 6.5L16 4Z" fill="#F59E0B"/>
</svg> 