<?xml version="1.0" standalone="no"?>
<!DOCTYPE svg PUBLIC "-//W3C//DTD SVG 20010904//EN"
 "http://www.w3.org/TR/2001/REC-SVG-20010904/DTD/svg10.dtd">
<svg version="1.0" xmlns="http://www.w3.org/2000/svg"
 width="2048.000000pt" height="2048.000000pt" viewBox="0 0 2048.000000 2048.000000"
 preserveAspectRatio="xMidYMid meet">

<g transform="translate(0.000000,2048.000000) scale(0.100000,-0.100000)"
fill="#000000" stroke="none">
<path d="M9615 20465 c-518 -30 -888 -80 -1455 -196 -1112 -229 -2249 -683
-3241 -1294 -930 -573 -1802 -1329 -2518 -2185 -635 -759 -1136 -1562 -1536
-2460 -446 -1002 -747 -2164 -830 -3205 -33 -424 -35 -692 -35 -5911 l0 -5214
10240 0 10240 0 -3 5418 c-3 5875 1 5464 -53 5932 -261 2295 -1304 4455 -2946
6100 -1161 1164 -2486 1992 -4010 2505 -858 290 -1696 454 -2593 510 -291 18
-944 18 -1260 0z m1296 -430 c954 -67 1756 -240 2680 -575 1341 -488 2598
-1305 3635 -2362 904 -922 1646 -2065 2135 -3286 390 -974 611 -1984 670
-3067 13 -241 7 -1014 -10 -1225 -103 -1265 -419 -2432 -956 -3525 -214 -434
-448 -834 -735 -1254 -126 -186 -116 -172 -273 -381 -574 -768 -1383 -1557
-2167 -2112 -887 -628 -1855 -1104 -2875 -1413 -754 -228 -1469 -354 -2250
-396 -286 -15 -1050 -6 -1310 15 -1631 136 -3229 699 -4618 1629 -565 379
-1031 760 -1497 1227 -259 259 -392 404 -611 666 -676 810 -1187 1651 -1574
2589 -342 831 -580 1778 -669 2660 -37 362 -41 473 -41 1030 1 606 11 781 71
1250 81 631 260 1383 465 1952 285 794 645 1507 1114 2208 722 1080 1660 2020
2731 2738 1500 1004 3200 1565 4999 1647 241 11 833 3 1086 -15z"/>
<path d="M9650 19729 c-991 -64 -2035 -305 -2960 -683 -345 -142 -809 -369
-1124 -550 -1418 -818 -2611 -1986 -3454 -3379 -583 -962 -972 -1966 -1191
-3072 -70 -351 -110 -648 -148 -1085 -22 -260 -26 -1162 -5 -1415 53 -654 174
-1330 338 -1890 95 -328 255 -773 389 -1090 85 -200 327 -695 431 -880 260
-465 591 -954 936 -1383 l83 -103 1567 -2 c862 -1 1564 1 1560 4 -4 3 -27 14
-51 23 -161 62 -245 190 -325 491 -50 188 -68 241 -150 427 -174 398 -221 679
-125 750 25 19 27 19 120 -3 l94 -21 82 25 c116 37 350 80 398 74 37 -5 46 -1
111 48 110 84 229 216 478 524 158 196 253 324 307 414 97 160 144 222 228
299 159 144 338 262 621 408 168 87 192 102 266 175 140 138 237 306 409 710
88 207 180 387 325 635 136 232 201 356 243 465 l36 90 -21 70 c-29 100 -36
319 -14 438 46 241 169 460 416 737 170 191 270 350 324 512 77 234 105 551
72 818 -36 282 -103 527 -227 830 -44 107 -82 196 -84 198 -4 5 -144 -52 -355
-143 -190 -81 -317 -128 -481 -174 l-134 -38 3 -274 c5 -469 24 -649 97 -934
44 -173 82 -257 127 -285 18 -11 67 -31 108 -45 96 -32 120 -49 192 -132 83
-95 208 -268 208 -287 0 -9 -11 -21 -25 -26 -39 -15 -90 11 -163 83 l-64 62
51 -103 c60 -119 72 -178 46 -218 -15 -23 -22 -26 -55 -20 -34 5 -42 2 -68
-24 -32 -32 -54 -36 -96 -20 -20 7 -33 5 -62 -12 -33 -19 -41 -20 -81 -10 -37
10 -48 10 -66 -3 -30 -21 -54 -19 -102 10 -90 52 -166 225 -219 494 -37 188
-110 446 -216 761 -106 317 -155 490 -194 695 -39 205 -68 415 -60 449 9 43
99 133 239 241 301 232 549 367 837 456 130 40 189 69 361 181 223 145 378
207 580 230 94 11 99 13 148 55 139 119 225 286 231 452 l3 67 -105 105 c-107
106 -153 172 -196 278 -66 162 -71 362 -15 529 17 51 31 97 31 103 0 23 -57 8
-88 -23 -43 -46 -63 -100 -69 -189 -11 -150 33 -296 155 -515 82 -148 118
-244 127 -341 7 -70 -4 -156 -27 -212 -12 -30 -13 -24 -13 71 0 76 -5 116 -19
153 -10 28 -22 53 -25 57 -4 4 -7 -41 -7 -100 0 -116 -16 -188 -61 -276 -30
-60 -121 -152 -182 -185 l-44 -24 41 54 c53 71 91 153 97 215 l6 49 -27 -50
c-15 -27 -59 -82 -99 -121 -80 -80 -187 -139 -310 -174 -94 -27 -123 -25 -53
4 62 25 168 97 209 142 28 30 99 138 99 150 0 4 -13 -11 -28 -32 -119 -163
-333 -268 -574 -281 -60 -3 -108 -4 -108 0 0 3 33 15 72 27 139 42 222 101
314 223 45 60 129 215 121 223 -2 2 -21 -21 -42 -51 -136 -199 -413 -321 -651
-290 l-59 8 65 13 c229 44 403 191 532 449 54 108 57 128 11 70 -48 -61 -128
-117 -208 -147 -79 -29 -244 -32 -320 -5 -61 21 -140 80 -168 127 l-22 35 35
-26 c50 -38 104 -52 191 -52 198 1 371 118 485 328 l38 70 -68 -72 c-93 -99
-170 -138 -276 -137 -49 0 -85 5 -105 16 l-30 16 47 -5 c141 -16 276 85 373
277 18 36 67 151 109 255 94 231 129 297 208 380 109 118 252 161 392 121 l57
-17 60 55 c33 31 80 69 104 86 156 107 380 157 595 131 393 -48 691 -258 667
-470 -3 -27 1 -73 10 -111 24 -99 21 -270 -6 -342 -27 -71 -21 -99 45 -213 80
-137 87 -152 75 -173 -10 -19 -42 -35 -94 -46 -36 -8 -43 -29 -28 -85 12 -44
11 -47 -13 -66 -21 -17 -25 -26 -20 -55 5 -30 1 -39 -25 -64 -29 -28 -30 -33
-25 -82 5 -43 3 -59 -14 -87 -41 -65 -89 -71 -262 -32 -61 14 -122 23 -133 19
-31 -9 -66 -43 -88 -86 -29 -57 -69 -205 -69 -258 l0 -48 68 -27 c215 -85 319
-213 377 -461 11 -47 34 -97 74 -163 83 -136 120 -212 142 -299 46 -181 5
-355 -131 -557 -61 -90 -89 -150 -124 -266 -45 -148 -139 -599 -231 -1108 -55
-300 -83 -414 -165 -656 l-61 -180 33 -25 c318 -246 653 -564 894 -850 303
-360 677 -960 779 -1252 23 -66 27 -89 23 -165 -5 -133 -44 -206 -237 -447
-112 -139 -231 -297 -386 -511 -59 -82 -169 -233 -244 -334 -242 -329 -281
-384 -392 -550 -153 -229 -289 -514 -333 -693 -6 -26 -4 -28 24 -28 55 0 86
-92 58 -175 l-13 -40 66 -65 c59 -57 75 -83 137 -210 70 -147 85 -180 77 -180
-2 0 -19 21 -36 48 -50 73 -221 284 -226 278 -2 -2 3 -18 11 -34 9 -17 36 -79
62 -139 115 -269 146 -307 403 -483 87 -59 162 -117 173 -135 25 -40 20 -120
-11 -163 -34 -48 -82 -58 -198 -44 -300 38 -566 146 -810 331 -167 125 -206
147 -380 215 -171 66 -224 92 -328 161 -139 92 -234 210 -235 292 0 45 42 88
111 116 51 20 65 32 135 122 98 127 252 302 272 310 8 3 25 -1 38 -10 23 -15
24 -14 72 57 130 194 248 427 345 678 53 140 90 252 177 544 100 336 204 531
415 776 45 52 125 133 178 180 54 46 97 87 97 90 -1 13 -61 72 -121 118 -36
28 -203 141 -372 251 -351 229 -470 314 -658 468 -186 153 -431 327 -685 488
-235 149 -337 222 -429 306 -51 47 -56 49 -35 19 67 -97 313 -319 732 -660 37
-30 68 -60 68 -66 0 -13 -213 -337 -306 -464 -181 -249 -300 -395 -530 -650
-172 -190 -223 -254 -322 -401 -123 -181 -209 -247 -474 -363 -244 -107 -289
-138 -663 -451 -132 -111 -397 -326 -590 -480 -432 -343 -578 -483 -708 -680
l-85 -130 34 -18 c27 -14 34 -23 34 -48 0 -43 -22 -81 -75 -127 l-46 -41 15
-52 c21 -71 20 -194 -3 -306 -26 -123 -40 -147 -34 -56 5 67 -19 260 -36 290
-8 16 -87 -239 -113 -366 l-19 -94 23 -32 c28 -38 86 -90 148 -132 75 -51 93
-76 88 -120 -3 -21 -8 -45 -12 -54 -5 -12 -1 -18 14 -22 11 -3 190 -6 398 -6
889 -3 2975 -30 4287 -56 402 -8 957 -19 1235 -25 692 -14 1369 -29 1775 -40
187 -5 471 -13 630 -17 235 -6 274 -9 205 -15 -140 -12 -1870 -49 -3460 -73
-3010 -46 -4086 -57 -6373 -64 l-2018 -6 184 -195 c469 -497 1086 -1011 1682
-1402 909 -596 1897 -1028 2930 -1283 567 -140 947 -201 1575 -255 203 -18
878 -24 1125 -11 977 53 1901 244 2790 578 1071 403 2026 966 2885 1704 246
210 512 461 693 653 1131 1196 1882 2503 2326 4051 129 450 247 1103 295 1640
49 538 49 1164 1 1710 -73 809 -270 1675 -558 2445 -294 788 -727 1589 -1232
2281 -672 922 -1580 1784 -2527 2403 -922 600 -1944 1037 -3025 1291 -403 94
-829 161 -1343 211 -193 19 -1137 28 -1360 13z m-1405 -5610 c-369 -188 -585
-465 -671 -860 -26 -118 -26 -473 0 -639 51 -329 169 -785 336 -1310 39 -122
69 -224 67 -226 -4 -4 -12 16 -150 376 -112 294 -230 654 -281 857 -65 261
-89 430 -89 638 0 240 31 400 112 579 114 253 366 478 670 601 89 37 92 29 6
-16z m4402 -56 c15 -22 17 -43 14 -113 -11 -249 -4 -262 65 -129 57 108 109
169 146 169 31 0 55 -26 60 -65 3 -29 5 -30 45 -27 51 4 83 -22 83 -68 0 -28
3 -30 37 -30 46 0 73 -24 73 -66 0 -27 5 -34 30 -42 46 -16 57 -51 37 -115
-36 -113 -168 -310 -278 -414 -108 -103 -243 -284 -537 -724 -105 -157 -224
-324 -265 -370 -128 -147 -386 -371 -443 -385 -37 -9 -66 2 -149 57 -52 35
-92 72 -122 113 -83 112 -82 103 -39 278 45 184 89 299 166 433 32 55 67 118
78 140 23 46 18 55 71 -109 38 -115 38 -116 57 -95 10 12 53 44 94 72 216 146
326 243 465 412 96 117 162 213 189 273 19 43 19 43 -4 133 -19 77 -22 105
-17 192 11 189 26 292 59 400 36 117 52 132 85 80z m-3111 -1164 c49 -123 96
-282 124 -419 68 -335 48 -709 -56 -1033 -33 -102 -130 -324 -139 -316 -2 2
10 43 26 91 36 106 71 262 96 418 25 160 25 638 0 820 -33 238 -80 437 -151
645 -19 54 62 -113 100 -206z m-630 -2812 c-109 -533 -305 -1015 -609 -1497
-124 -196 -373 -560 -384 -560 -3 0 6 19 20 43 410 702 821 1590 968 2095 19
63 35 109 37 104 2 -6 -13 -89 -32 -185z m-3992 -4558 c103 -323 315 -754 538
-1093 32 -49 56 -91 53 -94 -2 -2 -145 3 -317 12 -524 28 -753 36 -1248 43
l-475 7 235 17 c591 43 751 51 1141 56 l415 6 -58 115 c-90 180 -146 313 -203
487 -76 228 -115 399 -138 605 l-5 45 14 -50 c8 -27 30 -98 48 -156z m10943
-34 c80 -27 161 -72 222 -124 l35 -28 55 45 c102 83 269 142 401 142 132 0
313 -65 413 -149 102 -85 187 -222 218 -351 20 -80 17 -251 -5 -325 -40 -134
-78 -187 -280 -392 -181 -184 -191 -193 -228 -193 -88 0 -138 47 -138 132 -1
43 1 45 169 208 183 179 211 215 236 304 53 185 -40 393 -212 473 -114 53
-233 52 -351 -2 -102 -47 -192 -142 -253 -267 -13 -27 -25 -48 -28 -48 -4 0
-21 29 -40 65 -48 93 -157 207 -234 245 -84 41 -169 55 -249 41 -219 -38 -363
-240 -327 -460 18 -117 51 -162 277 -379 112 -109 207 -198 211 -200 7 -2 158
174 286 335 27 34 51 60 53 58 2 -2 -21 -45 -52 -97 -30 -51 -89 -156 -129
-233 l-75 -140 177 -180 c97 -99 199 -204 226 -232 l49 -53 -39 -41 c-22 -22
-62 -59 -88 -81 l-49 -41 -211 211 c-117 117 -215 212 -219 212 -3 0 -51 -50
-105 -112 -130 -147 -155 -175 -150 -163 2 6 36 64 74 130 39 66 80 140 93
164 l22 43 -250 252 c-228 230 -252 257 -285 326 -48 102 -71 221 -63 325 21
269 168 471 414 571 127 51 293 54 429 9z"/>
</g>
</svg>
